HIERARCHY
ROOT Hips
{
  OFFSET 51.8108 84.3084 9.02584
  CHANNELS 6 Xposition Yposition Zposition Zrotation Xrotation Yrotation
  JOINT spine
  {
    OFFSET 0 5.95438 0.342407
    CHANNELS 3 Zrotation Xrotation Yrotation
    JOINT spine1
    {
      OFFSET 0 8.85602 0
      CHANNELS 3 Zrotation Xrotation Yrotation
      JOINT spine2
      {
        OFFSET 0 8.48567 0
        CHANNELS 3 Zrotation Xrotation Yrotation
        JOINT Neck
        {
          OFFSET 0 21.7863 1.0387
          CHANNELS 3 Zrotation Xrotation Yrotation
          JOINT Head
          {
            OFFSET 0 6.5822 0
            CHANNELS 3 Zrotation Xrotation Yrotation
            End Site
            {
              OFFSET 0 15.9326 -5.25436
            }
          }
        }
        JOINT RightShoulder
        {
          OFFSET -3.57307 9.16386 -0.497525
          CHANNELS 3 Zrotation Xrotation Yrotation
          JOINT RightArm
          {
            OFFSET 0 12.0192 0
            CHANNELS 3 Zrotation Xrotation Yrotation
            JOINT RightArmRoll
            {
              OFFSET 0 6.06755 0
              CHANNELS 3 Zrotation Xrotation Yrotation
              JOINT RightForeArm
              {
                OFFSET 0 17.6726 0
                CHANNELS 3 Zrotation Xrotation Yrotation
                JOINT RightForeArmRoll
                {
                  OFFSET 0 6.80872 0
                  CHANNELS 3 Zrotation Xrotation Yrotation
                  JOINT RightHand
                  {
                    OFFSET 0 13.6636 0
                    CHANNELS 3 Zrotation Xrotation Yrotation
                    End Site
                    {
                      OFFSET 0 0 0
                    }
                  }
                }
              }
            }
          }
        }
        JOINT LeftShoulder
        {
          OFFSET 3.57307 9.16386 -0.497525
          CHANNELS 3 Zrotation Xrotation Yrotation
          JOINT LeftArm
          {
            OFFSET 0 12.0192 0
            CHANNELS 3 Zrotation Xrotation Yrotation
            JOINT LeftArmRoll
            {
              OFFSET 0 6.06755 0
              CHANNELS 3 Zrotation Xrotation Yrotation
              JOINT LeftForeArm
              {
                OFFSET 0 17.6726 0
                CHANNELS 3 Zrotation Xrotation Yrotation
                JOINT LeftForeArmRoll
                {
                  OFFSET 0 6.80872 0
                  CHANNELS 3 Zrotation Xrotation Yrotation
                  JOINT LeftHand
                  {
                    OFFSET 0 13.6636 0
                    CHANNELS 3 Zrotation Xrotation Yrotation
                    End Site
                    {
                      OFFSET 0 0 0
                    }
                  }
                }
              }
            }
          }
        }
      }
    }
  }
  JOINT RightUpLeg
  {
    OFFSET -5.27774 -0.967797 -0.811858
    CHANNELS 3 Zrotation Xrotation Yrotation
    JOINT RightUpLegRoll
    {
      OFFSET 0 16.0214 0
      CHANNELS 3 Zrotation Xrotation Yrotation
      JOINT RightLeg
      {
        OFFSET 0 -19.8401 0
        CHANNELS 3 Zrotation Xrotation Yrotation
        JOINT RightLegRoll
        {
          OFFSET 0 19.905 0
          CHANNELS 3 Zrotation Xrotation Yrotation
          JOINT RightFoot
          {
            OFFSET 0 16.5675 0
            CHANNELS 3 Zrotation Xrotation Yrotation
            JOINT RightToeBase
            {
              OFFSET 0 13.8496 0
              CHANNELS 3 Zrotation Xrotation Yrotation
              End Site
              {
                OFFSET 0.00587034 6.70728 -0.773117
              }
            }
          }
        }
      }
    }
  }
  JOINT LeftUpLeg
  {
    OFFSET 5.27774 -0.967797 -0.811858
    CHANNELS 3 Zrotation Xrotation Yrotation
    JOINT LeftUpLegRoll
    {
      OFFSET 0 16.0215 0
      CHANNELS 3 Zrotation Xrotation Yrotation
      JOINT LeftLeg
      {
        OFFSET 0 19.84 0
        CHANNELS 3 Zrotation Xrotation Yrotation
        JOINT LeftLegRoll
        {
          OFFSET 0 20.089 0
          CHANNELS 3 Zrotation Xrotation Yrotation
          JOINT LeftFoot
          {
            OFFSET 0 16.3835 0
            CHANNELS 3 Zrotation Xrotation Yrotation
            JOINT LeftToeBase
            {
              OFFSET 0 13.8496 0
              CHANNELS 3 Zrotation Xrotation Yrotation
              End Site
              {
                OFFSET -0.0263083 6.70728 -0.773117
              }
            }
          }
        }
      }
    }
  }
}
MOTION
Frames: 5
Frame Time: 0.00208333
52.9991 84.3822 4.81043 -1.64072 -8.48674 -2.86931 0.402949 -0.550928 0.0718829 0.808564 2.9022 0.0948678 0.808457 4.54718 0.0835348 -4.1172 19.5782 -0.498207 4.39528 0.957905 -1.79671 74.6625 0.65428 -1.46671 106.501 16.7108 -7.16151 3.37874e-006 -4.87821e-007 4.89504e-007 -3.64089 -0.0263895 -1.99237 -4.37734e-006 -1.85204e-006 -3.01161 8.03009 -4.95137 0.697629 -63.4546 -1.87588 1.55447 -119.67 16.5245 18.4834 -2.38542e-015 0 -0 3.63946 -0.0275114 1.99253 -4.92742e-006 1.59679e-006 3.00001 -8.03011 -4.95139 -0.69764 -179.99 -2.88297 2.98408 180 7.01522e-015 178.819 177.343 6.75794 179.905 -3.16824e-006 -2.00143e-007 0.0644569 -18.1154 67.2236 18.9149 8.13289 25.2329 -3.4862 -176.91 -1.39599 -1.49497 4.54188e-006 -4.6773e-006 -1.15033 -2.29385 -12.1399 0.0891351 -1.84783e-006 -3.52178e-006 -0.223395 20.5452 70.2058 -21.5555 -8.13649 25.2327 3.48774 
52.9985 84.3808 4.81452 -1.64038 -8.48736 -2.88059 0.402662 -0.550746 0.0718789 0.807907 2.90365 0.0948809 0.807801 4.54863 0.0835667 -4.10758 19.6027 -0.507801 4.39658 0.881759 -1.80024 74.6781 0.657807 -1.46693 106.486 16.7191 -7.15025 3.37874e-006 -4.87821e-007 4.89504e-007 -3.64089 -0.0263895 -1.99237 -4.37734e-006 -1.85204e-006 -3.01161 8.03009 -4.95137 0.697629 -63.4498 -1.86803 1.54952 -119.67 16.5232 18.4829 -7.95139e-015 -3.18055e-015 -0 3.63946 -0.0275114 1.99253 -4.92742e-006 1.59679e-006 3.00001 -8.03011 -4.95139 -0.69764 -179.993 -2.88184 2.98611 180 7.01522e-015 178.819 177.344 6.76275 179.904 -3.16824e-006 -2.00143e-007 0.0644569 -18.1176 67.2263 18.9172 8.13289 25.2329 -3.4862 -176.912 -1.40241 -1.49425 4.54188e-006 -4.6773e-006 -1.15033 -2.29424 -12.1364 0.0891798 -1.84783e-006 -3.52178e-006 -0.223395 20.5453 70.2058 -21.5556 -8.13649 25.2327 3.48774 
52.9947 84.3826 4.82315 -1.63987 -8.48806 -2.89187 0.402338 -0.550579 0.0718746 0.807195 2.90512 0.0948965 0.807089 4.5501 0.0836028 -4.09831 19.6288 -0.517534 4.39857 0.80257 -1.80392 74.6937 0.661409 -1.46713 106.471 16.7275 -7.13903 3.37874e-006 -4.87821e-007 4.89504e-007 -3.64089 -0.0263895 -1.99237 -4.37734e-006 -1.85204e-006 -3.01161 8.03009 -4.95137 0.697629 -63.4453 -1.86002 1.54451 -119.67 16.5216 18.4819 -3.18055e-015 3.18055e-015 6.36111e-015 3.63946 -0.0275114 1.99253 -4.92742e-006 1.59679e-006 3.00001 -8.03011 -4.95139 -0.69764 -179.996 -2.88072 2.98828 180 7.01522e-015 178.819 177.344 6.76768 179.904 -3.16824e-006 -2.00143e-007 0.0644569 -18.1197 67.2291 18.9195 8.13289 25.2329 -3.4862 -176.915 -1.40899 -1.49346 4.54188e-006 -4.6773e-006 -1.15033 -2.29462 -12.1329 0.0892204 -1.84783e-006 -3.52178e-006 -0.223395 20.5455 70.206 -21.5557 -8.13649 25.2327 3.48774 
52.9957 84.3785 4.82677 -1.63925 -8.48881 -2.90315 0.401988 -0.550421 0.0718702 0.806444 2.9066 0.0949139 0.806338 4.55158 0.0836418 -4.08927 19.6559 -0.527367 4.40103 0.721251 -1.8077 74.7095 0.665063 -1.46732 106.456 16.736 -7.12784 3.37874e-006 -4.87821e-007 4.89504e-007 -3.64089 -0.0263895 -1.99237 -4.37734e-006 -1.85204e-006 -3.01161 8.03009 -4.95137 0.697629 -63.4411 -1.8519 1.53946 -119.669 16.5199 18.4807 -1.03368e-014 3.18055e-015 6.36111e-015 3.63946 -0.0275114 1.99253 -4.92742e-006 1.59679e-006 3.00001 -8.03011 -4.95139 -0.69764 -179.999 -2.87962 2.99053 180 7.01522e-015 178.819 177.344 6.77271 179.904 -3.16824e-006 -2.00143e-007 0.0644569 -18.1219 67.2319 18.9219 8.13289 25.2329 -3.4862 -176.918 -1.41568 -1.49262 4.54188e-006 -4.6773e-006 -1.15033 -2.295 -12.1293 0.0892582 -1.84783e-006 -3.52178e-006 -0.223395 20.5456 70.2061 -21.5559 -8.13649 25.2327 3.48774 
53.0019 84.3777 4.82181 -1.63857 -8.48959 -2.91443 0.401623 -0.550269 0.0718656 0.805671 2.90809 0.0949324 0.805565 4.55306 0.0836825 -4.08037 19.6835 -0.537257 4.40376 0.638714 -1.81154 74.7253 0.668747 -1.46749 106.441 16.7445 -7.11667 3.37874e-006 -4.87821e-007 4.89504e-007 -3.64089 -0.0263895 -1.99237 -4.37734e-006 -1.85204e-006 -3.01161 8.03009 -4.95137 0.697629 -63.4369 -1.84372 1.53439 -119.668 16.5182 18.4792 -9.54166e-015 -3.18055e-015 6.36111e-015 3.63946 -0.0275114 1.99253 -4.92742e-006 1.59679e-006 3.00001 -8.03011 -4.95139 -0.69764 179.997 -2.87853 2.99283 180 7.01522e-015 178.819 177.345 6.77782 179.904 -3.16824e-006 -2.00143e-007 0.0644569 -18.1241 67.2347 18.9243 8.13289 25.2329 -3.4862 -176.921 -1.42243 -1.49174 4.54188e-006 -4.6773e-006 -1.15033 -2.29539 -12.1258 0.0892943 -1.84783e-006 -3.52178e-006 -0.223395 20.5458 70.2063 -21.5561 -8.13649 25.2327 3.48774 
